<svg width="27" height="26" viewBox="0 0 27 26" fill="none" xmlns="http://www.w3.org/2000/svg">
<mask id="path-1-inside-1_52_2" fill="white">
<path d="M12.7796 0.281183C11.1014 0.302115 9.44369 0.6534 7.9012 1.31498C6.3587 1.97656 4.96162 2.93548 3.78971 4.13698C2.61781 5.33849 1.69403 6.75906 1.07113 8.31757C0.448229 9.87609 0.138399 11.542 0.159331 13.2203C0.180263 14.8985 0.531547 16.5562 1.19313 18.0987C1.85471 19.6412 2.81362 21.0383 4.01513 22.2102C5.21664 23.3821 6.6372 24.3059 8.19572 24.9288C9.75424 25.5517 11.4202 25.8615 13.0984 25.8406L12.939 13.0609L12.7796 0.281183Z"/>
</mask>
<path d="M12.7796 0.281183C11.1014 0.302115 9.44369 0.6534 7.9012 1.31498C6.3587 1.97656 4.96162 2.93548 3.78971 4.13698C2.61781 5.33849 1.69403 6.75906 1.07113 8.31757C0.448229 9.87609 0.138399 11.542 0.159331 13.2203C0.180263 14.8985 0.531547 16.5562 1.19313 18.0987C1.85471 19.6412 2.81362 21.0383 4.01513 22.2102C5.21664 23.3821 6.6372 24.3059 8.19572 24.9288C9.75424 25.5517 11.4202 25.8615 13.0984 25.8406L12.939 13.0609L12.7796 0.281183Z" stroke="#989898" stroke-width="2" mask="url(#path-1-inside-1_52_2)"/>
<path d="M13.535 25.7784C15.2131 25.7494 16.8691 25.3902 18.4084 24.7212C19.9477 24.0522 21.3401 23.0866 22.5063 21.8795C23.6724 20.6723 24.5893 19.2473 25.2047 17.6858C25.8201 16.1243 26.1219 14.4569 26.0929 12.7788C26.0639 11.1007 25.7047 9.44467 25.0357 7.90537C24.3667 6.36608 23.4011 4.97362 22.1939 3.80751C20.9868 2.64139 19.5618 1.72446 18.0003 1.10906C16.4388 0.493663 14.7714 0.191848 13.0933 0.22085L13.3141 12.9996L13.535 25.7784Z" fill="#F6F6F6"/>
</svg>
